# xmcd
#
# Track frame offsets: 
#        150
#        16112
#        32275
#        52350
#        68695
#        93720
#        118522
#        139310
#        161760
#        179382
#        200472
#        226782
#
# Disc length: 3381 seconds
#
# Revision: 2
# Processed by: cddbd v1.5.1PL2 Copyright (c) Steve Scherf et al.
# Submitted via: ExactAudioCopy v0.95b3
#
DISCID=9f0d330c
DTITLE=Maria Creuza - Todo o Sentimento
DYEAR=1991
DGENRE=MPB
TTITLE0=Casinha Branca
TTITLE1=Rio Antigo (Como nos Velhos Tempos)
TTITLE2=Doa a Quem Doer
TTITLE3=Chuvas de Verão
TTITLE4=A Noite do Meu Bem - Todo o Sentimento
TTITLE5=Vingança - Você Abusou
TTITLE6=Na Baixa do Sapateiro
TTITLE7=Doce Safadeza
TTITLE8=Folha Morta
TTITLE9=Dia Branco - Dona da Minha Cabeça - Moça Bonita
TTITLE10=Dois pra Lá, Dois pra Cá - O Mestre Sala dos Mares
TTITLE11=Contigo En La Distancia - Besame Mucho - Amor
EXTD=
EXTT0=
EXTT1=
EXTT2=
EXTT3=
EXTT4=
EXTT5=
EXTT6=
EXTT7=
EXTT8=
EXTT9=
EXTT10=
EXTT11=
PLAYORDER=
